<svg width="1150" height="222" viewBox="0 0 1150 222" fill="none" xmlns="http://www.w3.org/2000/svg">
<path d="M51.2305 152.127H1099.66" stroke="#76A9E3" stroke-width="2"/>
<path d="M24.3 215.809L25.463 212.53H30.1377L31.3008 215.809H32.7687L28.523 204.23H27.0777L22.832 215.809H24.3ZM25.9034 211.286L27.7552 206.062H27.8456L29.6974 211.286H25.9034ZM35.7215 210.585C35.7215 209.07 36.6586 208.21 37.9346 208.21C39.171 208.21 39.9219 209.019 39.9219 210.382V215.809H41.2544V210.291C41.2544 208.075 40.0743 207.012 38.3185 207.012C37.0087 207.012 36.1957 207.6 35.7892 208.482H35.6763V207.125H34.389V215.809H35.7215V210.585ZM46.241 216.012C47.7541 216.012 48.5445 215.199 48.8155 214.633H48.8832V215.809H50.2156V210.087C50.2156 207.329 48.1154 207.012 47.0089 207.012C45.699 207.012 44.2085 207.464 43.5311 209.047L44.7957 209.499C45.0893 208.867 45.7837 208.188 47.054 208.188C48.2792 208.188 48.8832 208.838 48.8832 209.952V209.997C48.8832 210.642 48.2283 210.585 46.6475 210.789C45.0384 210.997 43.2826 211.354 43.2826 213.344C43.2826 215.04 44.5925 216.012 46.241 216.012ZM46.4443 214.814C45.3829 214.814 44.615 214.339 44.615 213.412C44.615 212.394 45.5409 212.077 46.5798 211.942C47.1444 211.874 48.6574 211.716 48.8832 211.444V212.666C48.8832 213.751 48.0251 214.814 46.4443 214.814ZM53.98 204.23H52.6476V215.809H53.98V204.23ZM57.2786 219.042C58.4811 219.042 59.3337 218.404 59.8305 217.075L63.5229 207.147L62.0662 207.125L59.6724 214.045H59.582L57.1882 207.125H55.743L58.9497 215.854L58.7013 216.532C58.2271 217.833 57.6173 217.957 56.6463 217.709L56.3075 218.884C56.443 218.952 56.8269 219.042 57.2786 219.042ZM71.4285 209.07C71.0106 207.837 70.0734 207.012 68.3571 207.012C66.5279 207.012 65.1729 208.052 65.1729 209.522C65.1729 210.721 65.8842 211.524 67.4763 211.897L68.9217 212.236C69.7968 212.439 70.2089 212.857 70.2089 213.457C70.2089 214.204 69.4185 214.814 68.1764 214.814C67.0868 214.814 66.4036 214.344 66.1665 213.412L64.9018 213.729C65.2124 215.204 66.4262 215.99 68.199 215.99C70.2146 215.99 71.5865 214.887 71.5865 213.389C71.5865 212.179 70.83 211.416 69.283 211.037L67.9958 210.721C66.9682 210.467 66.5053 210.122 66.5053 209.454C66.5053 208.708 67.2957 208.165 68.3571 208.165C69.5201 208.165 70 208.81 70.2315 209.409L71.4285 209.07ZM73.5922 215.809H74.9246V207.125H73.5922V215.809ZM74.2697 205.677C74.7891 205.677 75.2181 205.271 75.2181 204.773C75.2181 204.276 74.7891 203.869 74.2697 203.869C73.7503 203.869 73.3212 204.276 73.3212 204.773C73.3212 205.271 73.7503 205.677 74.2697 205.677ZM83.5076 209.07C83.0898 207.837 82.1526 207.012 80.4363 207.012C78.607 207.012 77.252 208.052 77.252 209.522C77.252 210.721 77.9634 211.524 79.5556 211.897L81.0009 212.236C81.876 212.439 82.2882 212.857 82.2882 213.457C82.2882 214.204 81.4977 214.814 80.2556 214.814C79.166 214.814 78.4828 214.344 78.2457 213.412L76.981 213.729C77.2916 215.204 78.5055 215.99 80.2782 215.99C82.2937 215.99 83.6657 214.887 83.6657 213.389C83.6657 212.179 82.9092 211.416 81.3623 211.037L80.075 210.721C79.0474 210.467 78.5845 210.122 78.5845 209.454C78.5845 208.708 79.3749 208.165 80.4363 208.165C81.5993 208.165 82.0792 208.81 82.3107 209.409L83.5076 209.07Z" fill="#649AB6"/>
<path fill-rule="evenodd" clip-rule="evenodd" d="M53.4363 181.315C69.2901 181.315 82.1421 168.445 82.1421 152.57C82.1421 136.695 69.2901 123.825 53.4363 123.825C37.5825 123.825 24.7305 136.695 24.7305 152.57C24.7305 168.445 37.5825 181.315 53.4363 181.315Z" fill="white"/>
<path fill-rule="evenodd" clip-rule="evenodd" d="M53.4358 172.47C64.4115 172.47 73.309 163.56 73.309 152.57C73.309 141.58 64.4115 132.669 53.4358 132.669C42.4601 132.669 33.5625 141.58 33.5625 152.57C33.5625 163.56 42.4601 172.47 53.4358 172.47Z" fill="white" stroke="#649AB6" stroke-width="2"/>
<path d="M55.2861 147.143H53.2436L50.6992 148.756V150.685L53.0529 149.208H53.1132V157.434H55.2861V147.143Z" fill="#649AB6"/>
<path fill-rule="evenodd" clip-rule="evenodd" d="M73.587 36.4841C73.587 39.1707 71.4121 41.3486 68.7291 41.3486C66.0461 41.3486 63.8712 39.1707 63.8712 36.4841C63.8712 33.7974 66.0461 31.6195 68.7291 31.6195C71.4121 31.6195 73.587 33.7974 73.587 36.4841ZM75.3535 36.4841C75.3535 40.1476 72.3876 43.1175 68.7291 43.1175C65.37 43.1175 62.5949 40.614 62.1631 37.3685H52.9961V35.5996H62.1631C62.5949 32.3541 65.37 29.8506 68.7291 29.8506C72.3876 29.8506 75.3535 32.8205 75.3535 36.4841ZM62.1631 69.7067H52.9961V67.9377H62.1631C62.5949 64.6923 65.37 62.1887 68.7291 62.1887C72.3876 62.1887 75.3535 65.1587 75.3535 68.8222C75.3535 72.4857 72.3876 75.4557 68.7291 75.4557C65.37 75.4557 62.5949 72.9521 62.1631 69.7067ZM73.587 68.8222C73.587 71.5088 71.4121 73.6867 68.7291 73.6867C66.0461 73.6867 63.8712 71.5088 63.8712 68.8222C63.8712 66.1356 66.0461 63.9577 68.7291 63.9577C71.4121 63.9577 73.587 66.1356 73.587 68.8222ZM75.3535 57.9323C78.0365 57.9323 80.2114 55.7544 80.2114 53.0677C80.2114 50.3811 78.0365 48.2032 75.3535 48.2032C72.6705 48.2032 70.4956 50.3811 70.4956 53.0677C70.4956 55.7544 72.6705 57.9323 75.3535 57.9323ZM75.3535 59.7012C79.0121 59.7012 81.9779 56.7312 81.9779 53.0677C81.9779 49.4042 79.0121 46.4343 75.3535 46.4343C71.9944 46.4343 69.2193 48.9378 68.7875 52.1833H52.9961V53.9522H68.7875C69.2193 57.1976 71.9944 59.7012 75.3535 59.7012Z" fill="#F5BA5B"/>
<path fill-rule="evenodd" clip-rule="evenodd" d="M65.4168 15.0358C71.7583 15.0358 76.8992 20.1836 76.8992 26.5338V28.1671C76.8992 29.6294 78.0484 30.7236 79.3705 30.8387C85.8731 31.405 90.9761 36.8727 90.9761 43.5321C90.9761 46.4956 89.9683 49.2183 88.2751 51.3821C87.5017 52.3709 87.5017 53.7644 88.2751 54.7532C89.9683 56.917 90.9761 59.6397 90.9761 62.6032C90.9761 69.2626 85.8731 74.7303 79.3705 75.2966C78.0484 75.4117 76.8992 76.5059 76.8992 77.9682V79.6015C76.8992 85.9517 71.7583 91.0995 65.4168 91.0995C59.0753 91.0995 53.9345 85.9517 53.9345 79.6015V26.5338C53.9345 20.1836 59.0753 15.0358 65.4168 15.0358ZM65.4168 13.2668C72.734 13.2668 78.6657 19.2066 78.6657 26.5338V28.1671C78.6657 28.646 79.0471 29.0349 79.5236 29.0764C86.931 29.7215 92.7426 35.9471 92.7426 43.5321C92.7426 46.9049 91.5934 50.0089 89.6662 52.473C89.3933 52.8211 89.3933 53.3142 89.6662 53.6623C91.5934 56.1264 92.7426 59.2304 92.7426 62.6032C92.7426 70.1882 86.931 76.4138 79.5236 77.0589C79.0471 77.1003 78.6657 77.4893 78.6657 77.9682V79.6015C78.6657 86.9287 72.734 92.8684 65.4168 92.8684C58.0997 92.8684 52.168 86.9287 52.168 79.6015V26.5338C52.168 19.2066 58.0997 13.2668 65.4168 13.2668Z" fill="#76A9E3"/>
<path fill-rule="evenodd" clip-rule="evenodd" d="M40.5757 15.0358C34.2342 15.0358 29.0934 20.1836 29.0934 26.5338V28.1671C29.0934 28.4598 29.0474 28.7376 28.9632 28.9959C33.9156 29.4002 38.5467 32.2898 41.2623 36.9998C41.5063 37.4228 41.3615 37.9638 40.939 38.208C40.5166 38.4523 39.9764 38.3073 39.7325 37.8843C36.997 33.1397 32.1424 30.5055 27.1729 30.732C26.9947 30.7862 26.8101 30.8224 26.6221 30.8387C20.1194 31.405 15.0165 36.8727 15.0165 43.5321C15.0165 46.4956 16.0247 49.2183 17.7174 51.3821C18.4909 52.3709 18.4909 53.7644 17.7174 54.7532C16.0247 56.917 15.0165 59.6397 15.0165 62.6032C15.0165 69.2626 20.1194 74.7303 26.6221 75.2966C26.8042 75.3124 26.9831 75.3469 27.1562 75.3983C34.5475 75.276 40.1655 69.5859 40.438 62.1563C40.4558 61.6682 40.8655 61.2869 41.353 61.3049C41.8405 61.3228 42.2212 61.7331 42.2032 62.2212C41.9192 69.9683 36.4156 76.1035 28.93 77.044C29.0352 77.3288 29.0934 77.6391 29.0934 77.9682V79.6015C29.0934 85.9517 34.2342 91.0995 40.5757 91.0995C46.9173 91.0995 52.0581 85.9517 52.0581 79.6015V26.5338C52.0581 20.1836 46.9173 15.0358 40.5757 15.0358ZM26.8329 77.1656C27.1256 77.3199 27.3269 77.6203 27.3269 77.9682V79.6015C27.3269 86.9287 33.2586 92.8684 40.5757 92.8684C47.8929 92.8684 53.8246 86.9287 53.8246 79.6015V26.5338C53.8246 19.2066 47.8929 13.2668 40.5757 13.2668C33.2586 13.2668 27.3269 19.2066 27.3269 26.5338V28.1671C27.3269 28.5206 27.1189 28.8252 26.8183 28.9771C24.7588 29.1093 22.6836 29.6773 20.7034 30.7271C20.562 30.802 20.4494 30.9098 20.3698 31.0362C16.1079 33.5626 13.25 38.2131 13.25 43.5321C13.25 46.9049 14.3992 50.0089 16.3268 52.473C16.5991 52.8211 16.5991 53.3142 16.3268 53.6623C14.3992 56.1264 13.25 59.2304 13.25 62.6032C13.25 70.1882 19.0616 76.4138 26.469 77.0589C26.4756 77.0594 26.4822 77.06 26.4887 77.0607C26.5925 77.1178 26.709 77.1546 26.8329 77.1656Z" fill="#6BBAB7"/>
<path fill-rule="evenodd" clip-rule="evenodd" d="M402.323 181.315C418.177 181.315 431.029 168.445 431.029 152.57C431.029 136.695 418.177 123.825 402.323 123.825C386.469 123.825 373.617 136.695 373.617 152.57C373.617 168.445 386.469 181.315 402.323 181.315Z" fill="white"/>
<path fill-rule="evenodd" clip-rule="evenodd" d="M402.322 172.47C413.298 172.47 422.196 163.56 422.196 152.57C422.196 141.58 413.298 132.669 402.322 132.669C391.347 132.669 382.449 141.58 382.449 152.57C382.449 163.56 391.347 172.47 402.322 172.47Z" fill="white" stroke="#649AB6" stroke-width="2"/>
<path d="M399.148 157.434H406.475V155.656H402.159V155.585L403.659 154.112C405.772 152.182 406.339 151.218 406.339 150.047C406.339 148.263 404.883 147.002 402.681 147.002C400.523 147.002 399.042 148.293 399.047 150.313H401.11C401.105 149.328 401.728 148.725 402.666 148.725C403.569 148.725 404.241 149.288 404.241 150.192C404.241 151.012 403.74 151.575 402.806 152.474L399.148 155.866V157.434Z" fill="#649AB6"/>
<path d="M346.121 206.358H349.757V216.693H351.157V206.358H354.794V205.115H346.121V206.358ZM359.152 216.874C360.913 216.874 362.201 215.992 362.607 214.68L361.32 214.318C360.981 215.223 360.197 215.675 359.152 215.675C357.588 215.675 356.51 214.663 356.447 212.803H362.743V212.238C362.743 209.005 360.823 207.896 359.017 207.896C356.668 207.896 355.109 209.751 355.109 212.419C355.109 215.088 356.645 216.874 359.152 216.874ZM356.447 211.65C356.538 210.299 357.492 209.095 359.017 209.095C360.462 209.095 361.387 210.18 361.387 211.65H356.447ZM367.321 216.897C368.835 216.897 369.625 216.083 369.896 215.517H369.964V216.693H371.296V210.972C371.296 208.213 369.196 207.896 368.089 207.896C366.78 207.896 365.289 208.348 364.611 209.931L365.876 210.383C366.169 209.751 366.864 209.073 368.134 209.073C369.36 209.073 369.964 209.723 369.964 210.836V210.881C369.964 211.526 369.308 211.47 367.728 211.673C366.119 211.882 364.363 212.238 364.363 214.228C364.363 215.925 365.673 216.897 367.321 216.897ZM367.525 215.698C366.463 215.698 365.696 215.223 365.696 214.296C365.696 213.278 366.621 212.962 367.66 212.826C368.225 212.758 369.738 212.6 369.964 212.328V213.55C369.964 214.635 369.105 215.698 367.525 215.698ZM373.728 216.693H375.06V211.266C375.06 209.993 375.987 209.095 377.025 209.095C378.036 209.095 378.742 209.756 378.742 210.746V216.693H380.096V211.04C380.096 209.92 380.797 209.095 382.016 209.095C382.964 209.095 383.778 209.598 383.778 210.881V216.693H385.11V210.881C385.11 208.84 384.015 207.896 382.468 207.896C381.225 207.896 380.316 208.468 379.87 209.366H379.78C379.351 208.439 378.595 207.896 377.455 207.896C376.325 207.896 375.489 208.439 375.128 209.366H375.015V208.01H373.728V216.693ZM398.16 209.954C397.742 208.722 396.805 207.896 395.089 207.896C393.26 207.896 391.905 208.936 391.905 210.406C391.905 211.605 392.616 212.408 394.208 212.781L395.653 213.12C396.529 213.323 396.941 213.742 396.941 214.341C396.941 215.088 396.151 215.698 394.909 215.698C393.819 215.698 393.135 215.228 392.898 214.296L391.634 214.613C391.944 216.088 393.158 216.874 394.931 216.874C396.946 216.874 398.318 215.772 398.318 214.273C398.318 213.063 397.562 212.3 396.014 211.921L394.728 211.605C393.7 211.351 393.238 211.006 393.238 210.338C393.238 209.593 394.027 209.05 395.089 209.05C396.252 209.05 396.732 209.694 396.963 210.293L398.16 209.954ZM403.96 216.874C405.721 216.874 407.008 215.992 407.416 214.68L406.128 214.318C405.79 215.223 405.004 215.675 403.96 215.675C402.396 215.675 401.318 214.663 401.256 212.803H407.551V212.238C407.551 209.005 405.631 207.896 403.824 207.896C401.476 207.896 399.918 209.751 399.918 212.419C399.918 215.088 401.454 216.874 403.96 216.874ZM401.256 211.65C401.346 210.299 402.3 209.095 403.824 209.095C405.27 209.095 406.196 210.18 406.196 211.65H401.256ZM410.91 205.115H409.578V216.693H410.91V205.115ZM416.987 216.874C418.748 216.874 420.035 215.992 420.442 214.68L419.154 214.318C418.816 215.223 418.031 215.675 416.987 215.675C415.422 215.675 414.344 214.663 414.282 212.803H420.577V212.238C420.577 209.005 418.658 207.896 416.851 207.896C414.502 207.896 412.944 209.751 412.944 212.419C412.944 215.088 414.48 216.874 416.987 216.874ZM414.282 211.65C414.372 210.299 415.326 209.095 416.851 209.095C418.296 209.095 419.222 210.18 419.222 211.65H414.282ZM426.126 216.874C428.047 216.874 429.312 215.698 429.537 214.16H428.205C427.956 215.11 427.166 215.675 426.126 215.675C424.546 215.675 423.53 214.363 423.53 212.351C423.53 210.383 424.568 209.095 426.126 209.095C427.301 209.095 428.002 209.818 428.205 210.61H429.537C429.312 208.982 427.934 207.896 426.104 207.896C423.756 207.896 422.198 209.751 422.198 212.396C422.198 214.997 423.688 216.874 426.126 216.874ZM435.256 208.01H433.405V205.929H432.072V208.01H430.762V209.14H432.072V214.568C432.072 216.083 433.291 216.806 434.42 216.806C434.918 216.806 435.234 216.716 435.414 216.648L435.143 215.45C435.031 215.472 434.85 215.517 434.556 215.517C433.969 215.517 433.405 215.336 433.405 214.206V209.14H435.256V208.01ZM437.261 216.693H438.593V208.01H437.261V216.693ZM437.938 206.562C438.458 206.562 438.886 206.155 438.886 205.658C438.886 205.16 438.458 204.753 437.938 204.753C437.418 204.753 436.99 205.16 436.99 205.658C436.99 206.155 437.418 206.562 437.938 206.562ZM444.557 216.874C446.905 216.874 448.485 215.088 448.485 212.396C448.485 209.683 446.905 207.896 444.557 207.896C442.208 207.896 440.627 209.683 440.627 212.396C440.627 215.088 442.208 216.874 444.557 216.874ZM444.557 215.675C442.772 215.675 441.959 214.138 441.959 212.396C441.959 210.655 442.772 209.095 444.557 209.095C446.341 209.095 447.153 210.655 447.153 212.396C447.153 214.138 446.341 215.675 444.557 215.675ZM451.852 211.47C451.852 209.954 452.789 209.095 454.065 209.095C455.301 209.095 456.052 209.903 456.052 211.266V216.693H457.385V211.175C457.385 208.959 456.205 207.896 454.449 207.896C453.139 207.896 452.327 208.484 451.919 209.366H451.807V208.01H450.519V216.693H451.852V211.47Z" fill="#649AB6"/>
<path fill-rule="evenodd" clip-rule="evenodd" d="M380.837 49.8786C381.093 50.2152 381.028 50.6956 380.692 50.9518C369.785 59.2667 362.489 65.7643 358.74 70.4588C355.772 74.1734 353.64 78.9611 352.368 84.8544C352.322 85.067 352.299 85.2839 352.299 85.5015C352.299 87.1932 353.668 88.5646 355.358 88.5646H421.321C421.743 88.5646 422.085 88.9078 422.085 89.3306C422.085 89.7534 421.743 90.0965 421.321 90.0965H355.358C352.824 90.0965 350.77 88.0391 350.77 85.5015C350.77 85.1752 350.804 84.8498 350.873 84.5309C352.183 78.4623 354.398 73.4418 357.545 69.5021C361.422 64.6482 368.852 58.0538 379.766 49.7332C380.102 49.477 380.582 49.5421 380.837 49.8786ZM395.04 50.1883C395.284 49.843 395.761 49.7609 396.105 50.0051C396.219 50.0852 396.331 50.1644 396.441 50.2426C398.471 51.6788 400.045 52.7932 401.906 54.2301C402.24 54.4884 402.302 54.9692 402.044 55.3042C401.786 55.6391 401.306 55.7012 400.971 55.443C399.137 54.026 397.587 52.9286 395.551 51.4882C395.443 51.4117 395.333 51.3343 395.223 51.2557C394.878 51.0115 394.795 50.5337 395.04 50.1883Z" fill="#6BBAB7"/>
<path fill-rule="evenodd" clip-rule="evenodd" d="M388.301 17.5704C379.142 17.5704 371.717 25.0056 371.717 34.1772C371.717 43.3489 379.142 50.7839 388.301 50.7839C397.461 50.7839 404.885 43.3489 404.885 34.1772C404.885 25.0056 397.461 17.5704 388.301 17.5704ZM370.188 34.1772C370.188 24.1597 378.298 16.0388 388.301 16.0388C398.305 16.0388 406.415 24.1597 406.415 34.1772C406.415 44.1948 398.305 52.3157 388.301 52.3157C378.298 52.3157 370.188 44.1948 370.188 34.1772Z" fill="#F5BA5B"/>
<path fill-rule="evenodd" clip-rule="evenodd" d="M408.369 49.8786C408.625 50.2152 408.559 50.6956 408.224 50.9518C397.316 59.2667 390.021 65.7643 386.271 70.4588C383.304 74.1734 381.171 78.9612 379.9 84.8544C379.854 85.067 379.831 85.2839 379.831 85.5015C379.831 87.1932 381.2 88.5646 382.889 88.5646H448.852C449.082 88.5646 449.312 88.539 449.536 88.4868C451.183 88.1083 452.212 86.4647 451.833 84.8158C450.67 79.7452 448.269 74.9622 444.608 70.4642C439.842 64.608 432.569 58.2042 422.754 51.2557C422.409 51.0115 422.327 50.5337 422.57 50.1883C422.814 49.843 423.292 49.7609 423.637 50.0051C433.508 56.9932 440.904 63.4894 445.794 69.4967C449.586 74.1568 452.103 79.1498 453.324 84.4729C453.891 86.9463 452.349 89.412 449.879 89.9798C449.542 90.0576 449.197 90.0965 448.852 90.0965H382.889C380.355 90.0965 378.301 88.0391 378.301 85.5015C378.301 85.1752 378.335 84.8498 378.404 84.5309C379.714 78.4623 381.929 73.4418 385.076 69.5021C388.954 64.6482 396.383 58.0538 407.297 49.7332C407.633 49.477 408.112 49.5421 408.369 49.8786Z" fill="#76A9E3"/>
<path fill-rule="evenodd" clip-rule="evenodd" d="M415.833 17.5704C406.673 17.5704 399.249 25.0056 399.249 34.1772C399.249 43.3489 406.673 50.7839 415.833 50.7839C424.991 50.7839 432.417 43.3489 432.417 34.1772C432.417 25.0056 424.991 17.5704 415.833 17.5704ZM397.719 34.1772C397.719 24.1597 405.829 16.0388 415.833 16.0388C425.836 16.0388 433.946 24.1597 433.946 34.1772C433.946 44.1948 425.836 52.3157 415.833 52.3157C405.829 52.3157 397.719 44.1948 397.719 34.1772Z" fill="#F5BA5B"/>
<path fill-rule="evenodd" clip-rule="evenodd" d="M447.553 58.6355C447.897 58.982 447.895 59.542 447.549 59.8863L428.261 79.0796L415.39 66.2711C415.043 65.9267 415.042 65.3667 415.386 65.0203C415.73 64.6737 416.289 64.672 416.635 65.0163L428.261 76.5857L446.304 58.6316C446.65 58.2873 447.209 58.2891 447.553 58.6355Z" fill="#F5BA5B"/>
<path fill-rule="evenodd" clip-rule="evenodd" d="M752.093 181.315C767.946 181.315 780.798 168.445 780.798 152.57C780.798 136.695 767.946 123.825 752.093 123.825C736.239 123.825 723.387 136.695 723.387 152.57C723.387 168.445 736.239 181.315 752.093 181.315Z" fill="white"/>
<path fill-rule="evenodd" clip-rule="evenodd" d="M752.092 172.47C763.067 172.47 771.965 163.56 771.965 152.57C771.965 141.58 763.067 132.669 752.092 132.669C741.117 132.669 732.219 141.58 732.219 152.57C732.219 163.56 741.117 172.47 752.092 172.47Z" fill="white" stroke="#649AB6" stroke-width="2"/>
<path d="M752.509 157.575C754.818 157.575 756.469 156.304 756.463 154.545C756.469 153.263 755.655 152.349 754.145 152.157V152.077C755.294 151.871 756.087 151.057 756.082 149.901C756.087 148.278 754.667 147.002 752.539 147.002C750.432 147.002 748.845 148.238 748.815 150.017H750.898C750.923 149.233 751.641 148.725 752.529 148.725C753.407 148.725 753.995 149.258 753.989 150.032C753.995 150.841 753.307 151.389 752.318 151.389H751.36V152.987H752.318C753.482 152.987 754.21 153.57 754.205 154.399C754.21 155.218 753.508 155.781 752.514 155.781C751.555 155.781 750.838 155.278 750.797 154.524H748.609C748.645 156.323 750.25 157.575 752.509 157.575Z" fill="#649AB6"/>
<path d="M725.695 216.693H732.47V215.45H727.095V205.115H725.695V216.693ZM737.009 216.897C738.522 216.897 739.312 216.083 739.584 215.517H739.652V216.693H740.984V210.972C740.984 208.213 738.883 207.896 737.777 207.896C736.468 207.896 734.977 208.348 734.299 209.932L735.564 210.383C735.857 209.751 736.551 209.073 737.822 209.073C739.048 209.073 739.652 209.723 739.652 210.836V210.881C739.652 211.526 738.996 211.47 737.415 211.673C735.807 211.882 734.051 212.238 734.051 214.228C734.051 215.925 735.361 216.897 737.009 216.897ZM737.212 215.698C736.151 215.698 735.383 215.223 735.383 214.296C735.383 213.278 736.309 212.962 737.348 212.826C737.913 212.758 739.426 212.6 739.652 212.328V213.55C739.652 214.635 738.793 215.698 737.212 215.698ZM748.881 213.143C748.881 214.771 747.639 215.517 746.645 215.517C745.539 215.517 744.748 214.703 744.748 213.437V208.01H743.416V213.527C743.416 215.743 744.59 216.806 746.216 216.806C747.526 216.806 748.384 216.105 748.791 215.223H748.881V216.693H750.214V208.01H748.881V213.143ZM753.986 211.47C753.986 209.955 754.923 209.095 756.199 209.095C757.436 209.095 758.187 209.903 758.187 211.266V216.693H759.519V211.175C759.519 208.96 758.339 207.896 756.583 207.896C755.273 207.896 754.46 208.485 754.054 209.366H753.941V208.01H752.654V216.693H753.986V211.47ZM765.477 216.875C767.397 216.875 768.661 215.698 768.887 214.16H767.555C767.306 215.11 766.516 215.675 765.477 215.675C763.896 215.675 762.88 214.364 762.88 212.351C762.88 210.383 763.918 209.095 765.477 209.095C766.651 209.095 767.351 209.818 767.555 210.61H768.887C768.661 208.982 767.283 207.896 765.454 207.896C763.106 207.896 761.548 209.751 761.548 212.397C761.548 214.997 763.038 216.875 765.477 216.875ZM772.167 211.47C772.167 209.955 773.132 209.095 774.448 209.095C775.702 209.095 776.458 209.886 776.458 211.266V216.693H777.791V211.175C777.791 208.943 776.604 207.896 774.832 207.896C773.465 207.896 772.686 208.468 772.28 209.366H772.167V205.115H770.835V216.693H772.167V211.47Z" fill="#649AB6"/>
<path fill-rule="evenodd" clip-rule="evenodd" d="M733.829 46.3851C734.1 46.7094 734.058 47.1924 733.734 47.4639C728.194 52.1075 724.212 55.9615 721.76 59.0328C718.792 62.7474 716.66 67.5351 715.388 73.4284C715.342 73.6411 715.319 73.8579 715.319 74.0754C715.319 75.7672 716.688 77.1387 718.378 77.1387H733.243C733.665 77.1387 734.008 77.4816 734.008 77.9045C734.008 78.3275 733.665 78.6703 733.243 78.6703H718.378C715.844 78.6703 713.789 76.6131 713.789 74.0754C713.789 73.7491 713.824 73.4238 713.892 73.1049C715.202 67.0363 717.417 62.0159 720.565 58.0761C723.114 54.8858 727.186 50.955 732.752 46.2894C733.076 46.018 733.558 46.0608 733.829 46.3851ZM770.06 47.963C770.336 47.6423 770.819 47.6058 771.139 47.8814C775.249 51.4187 778.632 54.8148 781.282 58.0706C785.075 62.7309 787.591 67.7237 788.812 73.047C789.38 75.5202 787.837 77.9857 785.367 78.5537C785.03 78.6312 784.685 78.6703 784.34 78.6703H770.199C769.777 78.6703 769.434 78.3275 769.434 77.9045C769.434 77.4816 769.777 77.1387 770.199 77.1387H784.34C784.571 77.1387 784.8 77.1127 785.025 77.061C786.672 76.6823 787.7 75.0386 787.322 73.3898C786.159 68.3192 783.757 63.5362 780.096 59.0382C777.518 55.8698 774.202 52.5378 770.142 49.0429C769.822 48.7672 769.786 48.2837 770.06 47.963Z" fill="#6BBAB7"/>
<path fill-rule="evenodd" clip-rule="evenodd" d="M769.316 83.1395V28.3809C769.316 27.7123 769.064 27.0684 768.61 26.5779L754.022 10.8054C752.991 9.69177 751.241 9.66869 750.182 10.7548L734.739 26.5947C734.256 27.0904 733.985 27.7556 733.985 28.4483V83.1395C733.985 84.6049 735.171 85.7929 736.635 85.7929H766.666C768.129 85.7929 769.316 84.6049 769.316 83.1395ZM733.475 25.359C732.669 26.1851 732.219 27.2938 732.219 28.4483V83.1395C732.219 85.5819 734.196 87.5619 736.635 87.5619H766.666C769.104 87.5619 771.082 85.5819 771.082 83.1395V28.3809C771.082 27.2667 770.662 26.1934 769.906 25.3759L755.318 9.60333C753.601 7.74736 750.682 7.70894 748.918 9.51913L733.475 25.359Z" fill="#F5BA5B"/>
<path fill-rule="evenodd" clip-rule="evenodd" d="M751.653 68.988C752.14 68.988 752.536 69.384 752.536 69.8725V99.0598C752.536 99.548 752.14 99.9442 751.653 99.9442C751.165 99.9442 750.77 99.548 750.77 99.0598V69.8725C750.77 69.384 751.165 68.988 751.653 68.988Z" fill="#76A9E3"/>
<path fill-rule="evenodd" clip-rule="evenodd" d="M751.651 39.6823C748.171 39.6823 745.35 42.5072 745.35 45.9921C745.35 49.477 748.171 52.302 751.651 52.302C755.131 52.302 757.952 49.477 757.952 45.9921C757.952 42.5072 755.131 39.6823 751.651 39.6823ZM743.82 45.9921C743.82 41.6614 747.326 38.1506 751.651 38.1506C755.976 38.1506 759.482 41.6614 759.482 45.9921C759.482 50.3229 755.976 53.8337 751.651 53.8337C747.326 53.8337 743.82 50.3229 743.82 45.9921Z" fill="#76A9E3"/>
<path fill-rule="evenodd" clip-rule="evenodd" d="M1097.45 181.315C1113.3 181.315 1126.15 168.445 1126.15 152.57C1126.15 136.695 1113.3 123.825 1097.45 123.825C1081.59 123.825 1068.74 136.695 1068.74 152.57C1068.74 168.445 1081.59 181.315 1097.45 181.315Z" fill="white"/>
<path fill-rule="evenodd" clip-rule="evenodd" d="M1097.45 172.47C1108.43 172.47 1117.32 163.56 1117.32 152.57C1117.32 141.58 1108.43 132.669 1097.45 132.669C1086.47 132.669 1077.57 141.58 1077.57 152.57C1077.57 163.56 1086.47 172.47 1097.45 172.47Z" fill="white" stroke="#649AB6" stroke-width="2"/>
<path d="M1093.34 155.625H1098.27V157.434H1100.34V155.625H1101.62V153.881H1100.34V147.143H1097.62L1093.34 153.911V155.625ZM1098.31 153.881H1095.52V153.801L1098.22 149.514H1098.31V153.881Z" fill="#649AB6"/>
<path d="M1071.06 210.904C1071.06 207.24 1068.92 204.956 1065.96 204.956C1063 204.956 1060.85 207.24 1060.85 210.904C1060.85 214.568 1063 216.851 1065.96 216.851C1068.92 216.851 1071.06 214.568 1071.06 210.904ZM1069.71 210.904C1069.71 213.912 1068.06 215.54 1065.96 215.54C1063.85 215.54 1062.21 213.912 1062.21 210.904C1062.21 207.896 1063.85 206.268 1065.96 206.268C1068.06 206.268 1069.71 207.896 1069.71 210.904ZM1073.23 219.95H1074.57V215.359H1074.68C1074.97 215.833 1075.54 216.874 1077.21 216.874C1079.38 216.874 1080.89 215.133 1080.89 212.373C1080.89 209.638 1079.38 207.896 1077.19 207.896C1075.5 207.896 1074.97 208.936 1074.68 209.388H1074.52V208.01H1073.23V219.95ZM1074.54 212.351C1074.54 210.406 1075.41 209.095 1077.03 209.095C1078.72 209.095 1079.56 210.52 1079.56 212.351C1079.56 214.206 1078.7 215.675 1077.03 215.675C1075.43 215.675 1074.54 214.318 1074.54 212.351ZM1086.56 216.874C1088.32 216.874 1089.61 215.992 1090.02 214.68L1088.73 214.318C1088.39 215.223 1087.61 215.675 1086.56 215.675C1085 215.675 1083.92 214.663 1083.86 212.803H1090.15V212.238C1090.15 209.005 1088.23 207.896 1086.42 207.896C1084.07 207.896 1082.52 209.751 1082.52 212.419C1082.52 215.088 1084.05 216.874 1086.56 216.874ZM1083.86 211.65C1083.95 210.299 1084.9 209.095 1086.42 209.095C1087.87 209.095 1088.8 210.18 1088.8 211.65H1083.86ZM1092.18 216.693H1093.51V211.198C1093.51 210.022 1094.43 209.163 1095.7 209.163C1096.06 209.163 1096.42 209.23 1096.52 209.253V207.896C1096.36 207.885 1096.01 207.873 1095.81 207.873C1094.78 207.873 1093.87 208.461 1093.56 209.321H1093.46V208.01H1092.18V216.693ZM1100.64 216.897C1102.16 216.897 1102.95 216.083 1103.22 215.517H1103.28V216.693H1104.62V210.972C1104.62 208.213 1102.52 207.896 1101.41 207.896C1100.1 207.896 1098.61 208.348 1097.94 209.931L1099.2 210.383C1099.49 209.751 1100.19 209.073 1101.45 209.073C1102.68 209.073 1103.28 209.723 1103.28 210.836V210.881C1103.28 211.526 1102.63 211.47 1101.05 211.673C1099.44 211.882 1097.68 212.238 1097.68 214.228C1097.68 215.925 1099 216.897 1100.64 216.897ZM1100.85 215.698C1099.79 215.698 1099.02 215.223 1099.02 214.296C1099.02 213.278 1099.94 212.962 1100.99 212.826C1101.55 212.758 1103.06 212.6 1103.28 212.328V213.55C1103.28 214.635 1102.43 215.698 1100.85 215.698ZM1110.83 208.01H1108.97V205.929H1107.64V208.01H1106.33V209.14H1107.64V214.568C1107.64 216.083 1108.86 216.806 1109.99 216.806C1110.48 216.806 1110.8 216.716 1110.99 216.648L1110.71 215.45C1110.6 215.472 1110.42 215.517 1110.12 215.517C1109.54 215.517 1108.97 215.336 1108.97 214.206V209.14H1110.83V208.01ZM1112.83 216.693H1114.16V208.01H1112.83V216.693ZM1113.5 206.562C1114.02 206.562 1114.46 206.155 1114.46 205.658C1114.46 205.16 1114.02 204.753 1113.5 204.753C1112.98 204.753 1112.56 205.16 1112.56 205.658C1112.56 206.155 1112.98 206.562 1113.5 206.562ZM1120.13 216.874C1122.48 216.874 1124.05 215.088 1124.05 212.396C1124.05 209.683 1122.48 207.896 1120.13 207.896C1117.78 207.896 1116.2 209.683 1116.2 212.396C1116.2 215.088 1117.78 216.874 1120.13 216.874ZM1120.13 215.675C1118.34 215.675 1117.53 214.138 1117.53 212.396C1117.53 210.655 1118.34 209.095 1120.13 209.095C1121.91 209.095 1122.72 210.655 1122.72 212.396C1122.72 214.138 1121.91 215.675 1120.13 215.675ZM1127.42 211.47C1127.42 209.954 1128.36 209.095 1129.63 209.095C1130.87 209.095 1131.62 209.903 1131.62 211.266V216.693H1132.95V211.175C1132.95 208.959 1131.77 207.896 1130.02 207.896C1128.7 207.896 1127.89 208.484 1127.48 209.366H1127.37V208.01H1126.09V216.693H1127.42V211.47Z" fill="#649AB6"/>
<path fill-rule="evenodd" clip-rule="evenodd" d="M1091.3 18.5736L1090.5 24.1385C1090.3 25.5169 1089.33 26.6005 1088.09 27.0269C1087 27.4003 1085.94 27.8401 1084.92 28.3417C1083.74 28.9209 1082.29 28.843 1081.17 28.0073L1076.68 24.6331L1068.61 32.7201L1071.98 37.2194C1072.81 38.3337 1072.89 39.7891 1072.31 40.9705C1071.81 41.9931 1071.37 43.0513 1071 44.1401C1070.58 45.384 1069.49 46.3574 1068.11 46.5544L1062.56 47.3494V58.7862L1068.11 59.5813C1069.49 59.7782 1070.58 60.7515 1071 61.9954C1071.37 63.0844 1071.81 64.1427 1072.31 65.1654C1072.89 66.3469 1072.81 67.8022 1071.98 68.9166L1068.61 73.415L1076.69 81.5021L1081.17 78.1282C1082.29 77.2924 1083.74 77.2145 1084.92 77.7937C1085.94 78.295 1087 78.7346 1088.09 79.1078C1089.33 79.5341 1090.3 80.6178 1090.49 81.9962L1091.29 87.5617H1102.71L1103.5 81.9969C1103.71 80.6184 1104.68 79.5347 1105.91 79.1083C1107 78.735 1108.06 78.2952 1109.09 77.7935C1110.26 77.2143 1111.72 77.2922 1112.83 78.1279L1117.33 81.5019L1125.4 73.4148L1122.03 68.916C1121.19 67.8017 1121.12 66.3463 1121.7 65.165C1122.19 64.1422 1122.63 63.084 1123.01 61.995C1123.43 60.7511 1124.52 59.7778 1125.89 59.5808L1131.45 58.7859V47.3491L1125.89 46.5541C1124.52 46.3572 1123.43 45.3839 1123.01 44.14C1122.63 43.0507 1122.19 41.9922 1121.7 40.9693C1121.12 39.7879 1121.19 38.3325 1122.03 37.2182L1125.4 32.7201L1117.32 24.6332L1112.83 28.0068C1111.72 28.8426 1110.26 28.9204 1109.09 28.3413C1108.06 27.8399 1107.01 27.4004 1105.91 27.0271C1104.68 26.6008 1103.71 25.5171 1103.51 24.1387L1102.72 18.5736H1091.3ZM1091.3 16.8047C1090.41 16.8047 1089.67 17.452 1089.55 18.3235L1088.75 23.8883C1088.66 24.5709 1088.17 25.13 1087.52 25.3535C1086.36 25.7511 1085.23 26.2194 1084.14 26.7534C1083.52 27.057 1082.78 27.006 1082.23 26.5921L1077.74 23.2178C1077.04 22.6897 1076.05 22.7598 1075.43 23.3822L1067.36 31.4692C1066.73 32.0917 1066.66 33.0772 1067.19 33.7814L1070.57 38.2808C1070.97 38.8326 1071.03 39.5725 1070.73 40.1919C1070.19 41.2805 1069.73 42.4071 1069.33 43.5667C1069.1 44.2189 1068.54 44.7057 1067.86 44.8032L1062.31 45.5983C1061.43 45.7227 1060.79 46.4691 1060.79 47.3494V58.7862C1060.79 59.6665 1061.43 60.4128 1062.31 60.5374L1067.86 61.3324C1068.54 61.43 1069.1 61.9168 1069.33 62.569C1069.73 63.7286 1070.2 64.8553 1070.73 65.9441C1071.03 66.5635 1070.97 67.3034 1070.57 67.8552L1067.19 72.3538C1066.66 73.058 1066.73 74.0434 1067.36 74.6659L1075.43 82.7529C1076.05 83.3754 1077.04 83.4455 1077.75 82.9173L1082.23 79.5433C1082.79 79.1295 1083.52 79.0784 1084.14 79.3821C1085.23 79.9157 1086.36 80.3837 1087.52 80.7811C1088.16 81.0047 1088.65 81.5638 1088.75 82.2463L1089.54 87.8118C1089.66 88.6832 1090.41 89.3306 1091.29 89.3306H1102.71C1103.59 89.3306 1104.33 88.6832 1104.46 87.8118L1105.25 82.247C1105.35 81.5645 1105.84 81.0053 1106.49 80.7817C1107.65 80.3842 1108.78 79.9158 1109.86 79.3818C1110.48 79.0782 1111.22 79.1292 1111.77 79.543L1116.27 82.917C1116.96 83.4452 1117.95 83.3751 1118.57 82.7527L1126.64 74.6656C1127.27 74.0432 1127.34 73.0577 1126.81 72.3534L1123.44 67.8547C1123.03 67.3029 1122.98 66.5629 1123.28 65.9435C1123.82 64.8549 1124.29 63.7281 1124.67 62.5685C1124.9 61.9163 1125.46 61.4295 1126.14 61.332L1131.7 60.537C1132.57 60.4126 1133.22 59.6662 1133.22 58.7859V47.3491C1133.22 46.4688 1132.57 45.7224 1131.7 45.5979L1126.14 44.803C1125.46 44.7055 1124.9 44.2186 1124.67 43.5664C1124.29 42.4066 1123.82 41.2796 1123.28 40.1907C1122.98 39.5713 1123.03 38.8313 1123.44 38.2795L1126.81 33.7815C1127.34 33.0773 1127.27 32.0918 1126.64 31.4693L1118.57 23.3823C1117.95 22.7599 1116.96 22.6898 1116.26 23.218L1111.77 26.5917C1111.22 27.0055 1110.48 27.0566 1109.86 26.7529C1108.78 26.2193 1107.65 25.7512 1106.49 25.3538C1105.84 25.1302 1105.36 24.5711 1105.25 23.8885L1104.47 18.3235C1104.34 17.452 1103.59 16.8047 1102.72 16.8047H1091.3Z" fill="#76A9E3"/>
<path fill-rule="evenodd" clip-rule="evenodd" d="M1085.62 38.2226C1093.38 32.792 1104.13 33.8778 1110.63 41.0996C1117.07 48.2704 1117.07 58.9973 1111 66.1527C1110.69 66.5249 1110.12 66.5702 1109.75 66.2538C1109.38 65.9374 1109.34 65.3793 1109.65 65.0071C1115.17 58.5177 1115.16 48.7868 1109.31 42.2832C1103.43 35.7334 1093.67 34.7472 1086.63 39.6722C1086.23 39.9521 1085.68 39.8546 1085.4 39.4543C1085.12 39.054 1085.21 38.5025 1085.62 38.2226Z" fill="#F5BA5B"/>
<path fill-rule="evenodd" clip-rule="evenodd" d="M1112.97 65.9647C1113 66.4519 1112.64 66.8753 1112.15 66.9103L1109.82 67.0777C1109.34 67.1127 1108.91 66.7461 1108.88 66.259C1108.84 65.7717 1109.21 65.3483 1109.7 65.3134L1112.02 65.1459C1112.51 65.1108 1112.93 65.4775 1112.97 65.9647Z" fill="#F5BA5B"/>
<path fill-rule="evenodd" clip-rule="evenodd" d="M1109.65 62.9766C1109.17 62.9927 1108.79 63.4015 1108.8 63.8898L1108.88 66.2249C1108.89 66.7132 1109.3 67.0959 1109.79 67.0798C1110.28 67.0636 1110.66 66.6548 1110.64 66.1666L1110.56 63.8314C1110.55 63.3432 1110.14 62.9605 1109.65 62.9766Z" fill="#F5BA5B"/>
<path fill-rule="evenodd" clip-rule="evenodd" d="M1108.01 69.0663C1100.26 74.4968 1089.5 73.411 1083.01 66.1892C1076.56 59.0185 1076.56 48.2916 1082.63 41.1361C1082.94 40.7639 1083.5 40.7187 1083.87 41.035C1084.24 41.3514 1084.3 41.9096 1083.98 42.2818C1078.47 48.7712 1078.47 58.5021 1084.31 65.0056C1090.2 71.5554 1099.96 72.5416 1106.99 67.6167C1107.4 67.3367 1107.95 67.4343 1108.23 67.8346C1108.51 68.2349 1108.41 68.7864 1108.01 69.0663Z" fill="#6BBAB7"/>
<path fill-rule="evenodd" clip-rule="evenodd" d="M1080.65 41.3243C1080.62 40.8371 1080.99 40.4138 1081.48 40.3787L1083.8 40.2113C1084.28 40.1763 1084.71 40.5429 1084.74 41.03C1084.78 41.5173 1084.42 41.9407 1083.93 41.9756L1081.6 42.1431C1081.11 42.1782 1080.69 41.8116 1080.65 41.3243Z" fill="#6BBAB7"/>
<path fill-rule="evenodd" clip-rule="evenodd" d="M1083.98 44.3124C1084.46 44.2963 1084.84 43.8874 1084.83 43.3992L1084.76 41.0641C1084.74 40.5758 1084.32 40.1931 1083.84 40.2092C1083.35 40.2254 1082.97 40.6342 1082.99 41.1224L1083.06 43.4576C1083.08 43.9458 1083.48 44.3285 1083.98 44.3124Z" fill="#6BBAB7"/>
<path d="M716.32 159.203L723.386 152.127L716.32 145.052" stroke="#76A9E3" stroke-width="2" stroke-linecap="round" stroke-linejoin="round"/>
<path d="M1061.68 159.203L1068.74 152.127L1061.68 145.052" stroke="#76A9E3" stroke-width="2" stroke-linecap="round" stroke-linejoin="round"/>
<path d="M366.551 159.203L373.617 152.127L366.551 145.052" stroke="#76A9E3" stroke-width="2" stroke-linecap="round" stroke-linejoin="round"/>
</svg>
